<svg id="Capa_1" data-name="Capa 1" xmlns="http://www.w3.org/2000/svg" viewBox="0 0 494 560"><defs><style>.cls-1,.cls-2{fill:#cddc39;stroke-miterlimit:10;}.cls-1{stroke:#fff;stroke-width:10px;}.cls-2{stroke:#000;stroke-width:6px;}.cls-3{fill:#fff;}.cls-4{font-size:24px;}.cls-14,.cls-4{font-family:BreeSerif-Regular, Bree Serif;}.cls-5{letter-spacing:-0.1em;}.cls-6{letter-spacing:-0.06em;}.cls-7{letter-spacing:0em;}.cls-8{letter-spacing:-0.01em;}.cls-9{letter-spacing:-0.08em;}.cls-10{letter-spacing:0em;}.cls-11{font-size:48px;font-family:Playball-Regular, Playball;}.cls-11,.cls-14{fill:#1b5e20;}.cls-12{letter-spacing:-0.02em;}.cls-13{letter-spacing:-0.03em;}.cls-14{font-size:286.5px;}</style></defs><circle class="cls-1" cx="248" cy="247" r="242"/><path class="cls-2" d="M208.64,411.62c-3.43,4.5-5.79,7.51-5.79,7.51a4,4,0,0,0,0,5.57l30.67,30.67a4,4,0,0,0,5.58,0s3-1.93,8.15-6"/><path class="cls-2" d="M237.81,439.93l-10.08,9.87"/><path class="cls-2" d="M228,430.06l-9.87,10.09"/><path class="cls-2" d="M218.29,420.41l-9.86,9.87"/><path class="cls-2" d="M264.62,386.31c2.79,2.79,27.67,32.82,27.67,32.82a4,4,0,0,1,0,5.57l-30.67,30.67a4,4,0,0,1-5.58,0s-18-12.44-43.11-37.53c-9.65-9.65-13.94-22.09-12.44-23.59l30.67-30.68c1.08-1.07,8.58.65,15.45,4.08"/><path class="cls-2" d="M287.14,411.83c6-8.15,8.58-16.3,7.3-17.58l-30.68-30.68c-1.5-1.5-15.22,1.29-25.09,11.16-4.08,4.07-13.3,10.51-17.8,21,0,0,2.36,4.07,8.58,1.71a150.32,150.32,0,0,0,17.37-7.72s10.72,4.29,17.37-3.22"/><path class="cls-2" d="M237,352a4,4,0,0,1,0,5.58l-39.68,39.68a4,4,0,0,1-5.57,0l-8.37-8.37a4,4,0,0,1,0-5.57L223,343.63a4,4,0,0,1,5.58,0Z"/><path class="cls-2" d="M258.83,352.85a4,4,0,0,0,0,5.58l39.9,39.89a4,4,0,0,0,5.57,0l8.37-8.36a4,4,0,0,0,0-5.58l-39.9-39.9a4,4,0,0,0-5.57,0Z"/><path class="cls-2" d="M242.1,424.92l25.1,24.88"/><path class="cls-2" d="M252,415.05l24.88,25.1"/><path class="cls-2" d="M261.62,405.4l24.88,24.88"/><rect class="cls-3" x="30.5" y="272.65" width="435" height="45.19" rx="16"/><text class="cls-4" transform="translate(78.19 302.44)">COO<tspan class="cls-5" x="46.32" y="0">P</tspan><tspan x="58.08" y="0">. DE SE</tspan><tspan class="cls-6" x="127.94" y="0">R</tspan><tspan class="cls-7" x="141.53" y="0">VICI</tspan><tspan class="cls-8" x="186.41" y="0">O</tspan><tspan x="202.1" y="0">S MÚ</tspan><tspan class="cls-9" x="255.26" y="0">L</tspan><tspan class="cls-10" x="266.23" y="0">TIPLES</tspan></text><text class="cls-11" transform="translate(14.39 554.84)">Al ser<tspan class="cls-12" x="113.66" y="0">v</tspan><tspan x="132.24" y="0">icio de la s</tspan><tspan class="cls-13" x="327.74" y="0">o</tspan><tspan x="348.04" y="0">ciedad</tspan></text><text class="cls-14" transform="translate(103.18 258.99) scale(0.97 1)">TP</text></svg>