<svg width="24" height="24" viewBox="0 0 24 24" fill="none" xmlns="http://www.w3.org/2000/svg">
<path d="M18.8956 5H12.8956C12.3456 5 11.8956 4.55 11.8956 4C11.8956 3.45 12.3456 3 12.8956 3H18.8956C19.9956 3 20.8956 3.9 20.8956 5V19C20.8956 20.1 19.9956 21 18.8956 21H12.8956C12.3456 21 11.8956 20.55 11.8956 20C11.8956 19.45 12.3456 19 12.8956 19H18.8956V5Z" fill="black"/>
<path d="M3.24563 11.65L6.03563 8.86C6.35563 8.54 6.89563 8.76 6.89563 9.21V11H13.8956C14.4456 11 14.8956 11.45 14.8956 12C14.8956 12.55 14.4456 13 13.8956 13H6.89563V14.79C6.89563 15.24 6.35563 15.46 6.04563 15.14L3.25563 12.35C3.05563 12.16 3.05563 11.84 3.24563 11.65Z" fill="black"/>
</svg>
